# xmcd
#
# Track frame offsets: 
#        180
#        13063
#        26669
#        36296
#        50092
#        64321
#        78229
#        92822
#        105789
#        117555
#        131939
#        144356
#        158299
#        171484
#        184884
#        201854
#        213865
#        225578
#        239523
#        253777
#        265120
#        278350
#        290102
#        302854
#
# Disc length: 4225 seconds
#
# Revision: 0
# Processed by: cddbd v1.5.2PL0 Copyright (c) Steve Scherf et al.
# Submitted via: ExactAudioCopy v0.95b4
#
DISCID=5d107f18
DTITLE=Various Artist - Blues Generations Vol. 3 [CD 2]
DYEAR=2006
DGENRE=Blues
TTITLE0=Mississippi John Hurt - Got The Blues (Can't Be Satisfied)
TTITLE1=John White - Stormy Weather No. 1
TTITLE2=Leadbelly - Midnight Special
TTITLE3=Leadbelly - Fort Worth And Dallas Blues
TTITLE4=Big Bill Bronzy - All I Got Belongs To You
TTITLE5=Big Bill Bronzy - Horny Frog
TTITLE6=Blind Boy Fuller - Baby You Gotta Change Your Mind
TTITLE7=Brownie Mc Ghee - Born For But Luck
TTITLE8=Brownie Mc Ghee - Not Guilty Blues
TTITLE9=Muddy Waters - Burr Clover Blues
TTITLE10=John Lee Williamson - I Win The War Blues
TTITLE11=Arthur Big Boy Crudup - Dirt Road Blues
TTITLE12=Arthur Big Boy Crudup - Crudup's After Hours
TTITLE13=Big Bill Bronzy - Big Billy Blues
TTITLE14=John Lee Hooker - Goin' Mad Blues
TTITLE15=Lightning' Hopkins - Have To Let You Go
TTITLE16=B.B. King - Take A Swing With Me
TTITLE17=John Lee Hooker - Highway Blues
TTITLE18=John Lee Hooker - Catfish
TTITLE19=Big Joe Turner - Lucille
TTITLE20=John Lee Hooker - Down At The Landing
TTITLE21=John Lee Hooker - My Baby Put Me Down
TTITLE22=John Lee Hooker - Everybody's Blues
TTITLE23=John Lee Hooker - I Need Love So Band
EXTD=
EXTT0=
EXTT1=
EXTT2=
EXTT3=
EXTT4=
EXTT5=
EXTT6=
EXTT7=
EXTT8=
EXTT9=
EXTT10=
EXTT11=
EXTT12=
EXTT13=
EXTT14=
EXTT15=
EXTT16=
EXTT17=
EXTT18=
EXTT19=
EXTT20=
EXTT21=
EXTT22=
EXTT23=
PLAYORDER=
